<?xml version="1.0" encoding="utf-8"?>
<!-- Generator: Adobe Illustrator 22.0.1, SVG Export Plug-In . SVG Version: 6.00 Build 0)  -->
<svg version="1.1" id="Layer_1" xmlns="http://www.w3.org/2000/svg" xmlns:xlink="http://www.w3.org/1999/xlink" x="0px" y="0px"
	 viewBox="0 0 24 24" style="enable-background:new 0 0 24 24;" xml:space="preserve">
<style type="text/css">
	.st0{fill:#FFFFFF;}
</style>
<g id="g6" transform="translate(-29.809,-29.81)">
	<g id="g8">
		<path id="path10" class="st0" d="M42.1,47.2h-0.4v0.9h0.5c0.3,0,0.4-0.2,0.4-0.5
			C42.5,47.4,42.4,47.2,42.1,47.2z M41.8,29.8c-6.6,0-12,5.4-12,12c0,6.6,5.4,12,12,12c6.6,0,12-5.4,12-12
			C53.8,35.2,48.4,29.8,41.8,29.8z M41.9,33.2c0.9,0,1.7,0.8,1.7,1.7s-0.8,1.7-1.7,1.7c-0.9,0-1.7-0.8-1.7-1.7S40.9,33.2,41.9,33.2z
			 M41.9,37.3c0.9,0,1.7,0.8,1.7,1.7c0,0.9-0.8,1.7-1.7,1.7c-0.9,0-1.7-0.8-1.7-1.7C40.1,38,40.9,37.3,41.9,37.3z M37.7,33.2
			c0.9,0,1.7,0.8,1.7,1.7s-0.8,1.7-1.7,1.7c-0.9,0-1.7-0.8-1.7-1.7S36.7,33.2,37.7,33.2z M37.7,37.3c0.9,0,1.7,0.8,1.7,1.7
			c0,0.9-0.8,1.7-1.7,1.7c-0.9,0-1.7-0.8-1.7-1.7C36,38,36.7,37.3,37.7,37.3z M37.7,41.4c0.9,0,1.7,0.8,1.7,1.7
			c0,0.9-0.8,1.7-1.7,1.7c-0.9,0-1.7-0.8-1.7-1.7C36,42.2,36.7,41.4,37.7,41.4z M39.7,48.7c0,0.4,0,0.9-0.6,1.3
			c-0.4,0.3-0.8,0.3-1.2,0.3c-0.4,0-0.8-0.1-1.2-0.3c-0.6-0.4-0.6-0.9-0.6-1.3v-2.4h1.2v2.4c0,0.2,0,0.4,0.2,0.6
			c0.1,0.1,0.2,0.1,0.4,0.1c0.2,0,0.3,0,0.4-0.1c0.2-0.1,0.2-0.3,0.2-0.6v-2.4h1.2L39.7,48.7L39.7,48.7z M41.9,41.4
			c0.9,0,1.7,0.8,1.7,1.7c0,0.9-0.8,1.7-1.7,1.7c-0.9,0-1.7-0.8-1.7-1.7C40.1,42.2,40.9,41.4,41.9,41.4z M43.1,48.8
			C42.9,48.9,42.6,49,42,49l-0.3,0v1.3h-1v-4h1.7c0.8,0,1.3,0.5,1.3,1.4C43.6,48.1,43.4,48.5,43.1,48.8z M47.2,47.5
			c-0.4-0.3-0.5-0.3-0.9-0.3c-0.6,0-1,0.5-1,1.1c0,0.7,0.4,1.1,1,1.1c0.3,0,0.5,0,0.9-0.3v1c-0.4,0.2-0.6,0.2-1,0.2
			c-1.2,0-2-0.9-2-2.1c0-1.2,0.9-2.1,2-2.1c0.4,0,0.6,0.1,1,0.2C47.2,46.5,47.2,47.5,47.2,47.5z M45.9,44.8c-0.9,0-1.7-0.8-1.7-1.7
			c0-0.9,0.8-1.7,1.7-1.7c0.9,0,1.7,0.8,1.7,1.7C47.6,44.1,46.9,44.8,45.9,44.8z M45.9,40.7c-0.9,0-1.7-0.8-1.7-1.7
			c0-0.9,0.8-1.7,1.7-1.7c0.9,0,1.7,0.8,1.7,1.7C47.6,39.9,46.9,40.7,45.9,40.7z M45.9,36.6c-0.9,0-1.7-0.8-1.7-1.7s0.8-1.7,1.7-1.7
			c0.9,0,1.7,0.8,1.7,1.7S46.9,36.6,45.9,36.6z"/>
	</g>
</g>
</svg>
